# xmcd
#
# Track frame offsets:
#	150
#	32000
#	53482
#	74885
#	88437
#	111182
#	140852
#
# Disc length: 2078 seconds
#
# Revision: 1
# Processed by: cddbd v1.4PL0 Copyright (c) Steve Scherf et al.
# Submitted via: audiograbber 1.80
#
DISCID=6c081c07
DTITLE=LEROY HUTSON - LEROY HUTSON
DYEAR=1900
DGENRE=
TTITLE0=ALL BECAUSE OF YOU
TTITLE1=I BLESS THE DAY
TTITLE2=IT'S DIFFERENT
TTITLE3=COOL OUT
TTITLE4=LUCKY FELLOW
TTITLE5=CAN'T STAY AWAY
TTITLE6=SO MUCH LOVE
EXTD=
EXTT0=
EXTT1=
EXTT2=
EXTT3=
EXTT4=
EXTT5=
EXTT6=
PLAYORDER=
